<svg viewBox="0 0 1000 400" xmlns="http://www.w3.org/2000/svg">
<defs><linearGradient id="g2" x1="0" y1="0" x2="0" y2="1"><stop offset="0%" stop-color="#2e205e"/><stop offset="100%" stop-color="#1b103c"/></linearGradient></defs>
<rect width="1000" height="400" fill="url(#g2)"/><rect x="0" y="330" width="1000" height="70" fill="#0e0724"/>
<text x="500" y="46" text-anchor="middle" font-family="Nunito,sans-serif" font-size="22" font-weight="900" fill="#ffbe1a">Step 1 &amp; 2 — Add the Parts, Find One Part</text>
<rect x="190" y="76" width="300" height="86" rx="14" fill="rgba(167,139,250,0.18)" stroke="#a78bfa" stroke-width="4"/>
<text x="340" y="112" text-anchor="middle" font-family="Nunito,sans-serif" font-size="15" font-weight="800" fill="#a78bfa">STEP 1 — ADD THE PARTS</text>
<text x="340" y="146" text-anchor="middle" font-family="monospace" font-size="28" font-weight="900" fill="#ffffff">4 + 5 = 9</text>
<rect x="520" y="76" width="300" height="86" rx="14" fill="rgba(255,138,80,0.18)" stroke="#FF8A50" stroke-width="4"/>
<text x="670" y="112" text-anchor="middle" font-family="Nunito,sans-serif" font-size="15" font-weight="800" fill="#FF8A50">STEP 2 — FIND ONE PART</text>
<text x="670" y="146" text-anchor="middle" font-family="monospace" font-size="28" font-weight="900" fill="#ffffff">45 ÷ 9 = 5</text>
<g>
<rect x="200" y="200" width="60" height="56" rx="7" fill="#4A90D9" fill-opacity="0.4" stroke="#4A90D9" stroke-width="3"/>
<text x="230" y="234" text-anchor="middle" font-family="Nunito,sans-serif" font-size="18" font-weight="900" fill="#ffffff">5</text>
<rect x="268" y="200" width="60" height="56" rx="7" fill="#4A90D9" fill-opacity="0.4" stroke="#4A90D9" stroke-width="3"/>
<text x="298" y="234" text-anchor="middle" font-family="Nunito,sans-serif" font-size="18" font-weight="900" fill="#ffffff">5</text>
<rect x="336" y="200" width="60" height="56" rx="7" fill="#4A90D9" fill-opacity="0.4" stroke="#4A90D9" stroke-width="3"/>
<text x="366" y="234" text-anchor="middle" font-family="Nunito,sans-serif" font-size="18" font-weight="900" fill="#ffffff">5</text>
<rect x="404" y="200" width="60" height="56" rx="7" fill="#4A90D9" fill-opacity="0.4" stroke="#4A90D9" stroke-width="3"/>
<text x="434" y="234" text-anchor="middle" font-family="Nunito,sans-serif" font-size="18" font-weight="900" fill="#ffffff">5</text>
<rect x="472" y="200" width="60" height="56" rx="7" fill="#FF8A50" fill-opacity="0.4" stroke="#FF8A50" stroke-width="3"/>
<text x="502" y="234" text-anchor="middle" font-family="Nunito,sans-serif" font-size="18" font-weight="900" fill="#ffffff">5</text>
<rect x="540" y="200" width="60" height="56" rx="7" fill="#FF8A50" fill-opacity="0.4" stroke="#FF8A50" stroke-width="3"/>
<text x="570" y="234" text-anchor="middle" font-family="Nunito,sans-serif" font-size="18" font-weight="900" fill="#ffffff">5</text>
<rect x="608" y="200" width="60" height="56" rx="7" fill="#FF8A50" fill-opacity="0.4" stroke="#FF8A50" stroke-width="3"/>
<text x="638" y="234" text-anchor="middle" font-family="Nunito,sans-serif" font-size="18" font-weight="900" fill="#ffffff">5</text>
<rect x="676" y="200" width="60" height="56" rx="7" fill="#FF8A50" fill-opacity="0.4" stroke="#FF8A50" stroke-width="3"/>
<text x="706" y="234" text-anchor="middle" font-family="Nunito,sans-serif" font-size="18" font-weight="900" fill="#ffffff">5</text>
<rect x="744" y="200" width="60" height="56" rx="7" fill="#FF8A50" fill-opacity="0.4" stroke="#FF8A50" stroke-width="3"/>
<text x="774" y="234" text-anchor="middle" font-family="Nunito,sans-serif" font-size="18" font-weight="900" fill="#ffffff">5</text>
</g>
<line x1="470" y1="186" x2="470" y2="270" stroke="#ffbe1a" stroke-width="3" stroke-dasharray="4,3"/>
<rect x="250" y="286" width="500" height="34" rx="10" fill="rgba(52,211,153,0.12)" stroke="#34d399" stroke-width="2"/>
<text x="500" y="309" text-anchor="middle" font-family="Nunito,sans-serif" font-size="16" font-weight="900" fill="#34d399">Each of the 9 equal parts is worth 5 sweets</text>
<g transform="translate(60,210)">
<rect x="-4" y="-40" width="10" height="18" fill="#4d3b84" rx="4"/><circle cx="1" cy="-42" r="7" fill="#ffbe1a"/>
<rect x="-20" y="-22" width="90" height="90" rx="20" fill="#2d1c69" stroke="#4d3b84" stroke-width="5"/>
<rect x="-8" y="-10" width="66" height="66" rx="12" fill="#1b103c"/>
<circle cx="10" cy="18" r="7" fill="#00f3ff"/><circle cx="42" cy="18" r="7" fill="#00f3ff"/>
<path d="M8 40 Q25 52 42 40" stroke="#ffffff" stroke-width="5" fill="none" stroke-linecap="round"/>
<rect x="0" y="68" width="16" height="30" rx="6" fill="#4d3b84"/><rect x="40" y="68" width="16" height="30" rx="6" fill="#4d3b84"/>
</g>
</svg>
